<svg width="335" height="93" viewBox="0 0 335 93" fill="none" xmlns="http://www.w3.org/2000/svg">
<path fill-rule="evenodd" clip-rule="evenodd" d="M0 10C0 4.47715 4.47715 0 10 0H325C330.523 0 335 4.47715 335 10V52.0107C334.834 52.0036 334.668 52 334.5 52C328.149 52 323 57.1487 323 63.5C323 69.8513 328.149 75 334.5 75C334.668 75 334.834 74.9964 335 74.9893V83C335 88.5228 330.523 93 325 93H9.99999C4.47714 93 0 88.5229 0 83V74.9893C6.11931 74.7275 11 69.6837 11 63.5C11 57.3162 6.11931 52.2725 0 52.0107V10Z" fill="#025492"/>
<line x1="12" y1="63" x2="322" y2="63" stroke="#F5F7F9" stroke-width="2" stroke-linecap="round" stroke-dasharray="7 7"/>
<path d="M90.6299 78.543L91.6113 77.1953L90.1367 76.7559L90.3662 76.0234L91.8408 76.5654L91.7969 74.8857H92.5391L92.4902 76.5947L93.9453 76.0527L94.1699 76.7998L92.6709 77.2441L93.6328 78.5674L93.0273 79.0215L92.124 77.6152L91.2402 78.9873L90.6299 78.543ZM94.9365 78.543L95.918 77.1953L94.4434 76.7559L94.6729 76.0234L96.1475 76.5654L96.1035 74.8857H96.8457L96.7969 76.5947L98.252 76.0527L98.4766 76.7998L96.9775 77.2441L97.9395 78.5674L97.334 79.0215L96.4307 77.6152L95.5469 78.9873L94.9365 78.543ZM99.2432 78.543L100.225 77.1953L98.75 76.7559L98.9795 76.0234L100.454 76.5654L100.41 74.8857H101.152L101.104 76.5947L102.559 76.0527L102.783 76.7998L101.284 77.2441L102.246 78.5674L101.641 79.0215L100.737 77.6152L99.8535 78.9873L99.2432 78.543ZM105.972 74.8906V82H105.083V74.8906H105.972ZM107.842 74.8906V75.6621H103.218V74.8906H107.842ZM110.176 82.0977C109.86 82.0977 109.575 82.0505 109.321 81.9561C109.067 81.8617 108.851 81.7184 108.672 81.5264C108.493 81.3311 108.356 81.0853 108.262 80.7891C108.167 80.4928 108.12 80.1429 108.12 79.7393V79.1436C108.12 78.6781 108.174 78.2842 108.281 77.9619C108.392 77.6396 108.54 77.3809 108.726 77.1855C108.911 76.987 109.121 76.8438 109.355 76.7559C109.59 76.6647 109.831 76.6191 110.078 76.6191C110.41 76.6191 110.693 76.6729 110.928 76.7803C111.162 76.8877 111.353 77.0472 111.499 77.2588C111.646 77.4704 111.753 77.7308 111.821 78.04C111.893 78.3493 111.929 78.7057 111.929 79.1094V79.6123H108.628V78.875H111.064V78.7529C111.051 78.4795 111.014 78.2386 110.952 78.0303C110.894 77.8219 110.796 77.6592 110.659 77.542C110.522 77.4215 110.329 77.3613 110.078 77.3613C109.919 77.3613 109.771 77.389 109.634 77.4443C109.5 77.4964 109.385 77.5892 109.287 77.7227C109.193 77.8529 109.118 78.0335 109.062 78.2646C109.01 78.4958 108.984 78.7887 108.984 79.1436V79.7393C108.984 80.0225 109.01 80.2666 109.062 80.4717C109.118 80.6735 109.198 80.8411 109.302 80.9746C109.409 81.1048 109.539 81.2025 109.692 81.2676C109.849 81.3294 110.026 81.3604 110.225 81.3604C110.514 81.3604 110.754 81.305 110.942 81.1943C111.131 81.0804 111.296 80.9355 111.436 80.7598L111.89 81.3018C111.795 81.4352 111.672 81.5638 111.519 81.6875C111.369 81.8079 111.183 81.9072 110.962 81.9854C110.744 82.0602 110.482 82.0977 110.176 82.0977ZM113.838 77.5469V82H112.974V76.7168H113.809L113.838 77.5469ZM115.151 76.6875L115.156 77.5273C115.085 77.5111 115.02 77.5013 114.961 77.498C114.906 77.4915 114.84 77.4883 114.766 77.4883C114.603 77.4883 114.46 77.5208 114.336 77.5859C114.215 77.651 114.111 77.7422 114.023 77.8594C113.936 77.9766 113.866 78.1165 113.813 78.2793C113.761 78.4388 113.726 78.6146 113.706 78.8066L113.481 78.9531C113.481 78.6341 113.506 78.3346 113.555 78.0547C113.607 77.7747 113.687 77.5273 113.794 77.3125C113.901 77.0944 114.038 76.9251 114.204 76.8047C114.373 76.681 114.575 76.6191 114.81 76.6191C114.862 76.6191 114.925 76.6273 115 76.6436C115.078 76.6566 115.129 76.6712 115.151 76.6875ZM116.885 77.7666V82H116.025V76.7168H116.836L116.885 77.7666ZM116.709 79.1582L116.309 79.1436C116.305 78.7822 116.341 78.4486 116.416 78.1426C116.491 77.8333 116.603 77.5648 116.753 77.3369C116.906 77.109 117.096 76.9333 117.324 76.8096C117.555 76.6826 117.824 76.6191 118.13 76.6191C118.332 76.6191 118.519 76.6549 118.691 76.7266C118.867 76.7949 119.02 76.904 119.15 77.0537C119.281 77.2035 119.382 77.3955 119.453 77.6299C119.528 77.8643 119.565 78.1475 119.565 78.4795V82H118.701V78.5234C118.701 78.2467 118.664 78.0254 118.589 77.8594C118.517 77.6934 118.415 77.5729 118.281 77.498C118.148 77.4199 117.988 77.3809 117.803 77.3809C117.591 77.3809 117.414 77.4281 117.271 77.5225C117.131 77.6169 117.018 77.7471 116.934 77.9131C116.852 78.0791 116.794 78.2695 116.758 78.4844C116.725 78.696 116.709 78.9206 116.709 79.1582ZM119.556 78.6602L118.979 78.8457C118.976 78.556 119.012 78.2777 119.087 78.0107C119.162 77.7438 119.272 77.5062 119.419 77.2979C119.569 77.0895 119.754 76.9251 119.976 76.8047C120.197 76.681 120.454 76.6191 120.747 76.6191C120.988 76.6191 121.201 76.6566 121.387 76.7314C121.572 76.8063 121.729 76.9219 121.855 77.0781C121.986 77.2311 122.083 77.4281 122.148 77.6689C122.214 77.9098 122.246 78.1963 122.246 78.5283V82H121.382V78.5186C121.382 78.2223 121.344 77.9928 121.27 77.8301C121.198 77.6641 121.095 77.5485 120.962 77.4834C120.828 77.415 120.669 77.3809 120.483 77.3809C120.334 77.3809 120.2 77.415 120.083 77.4834C119.969 77.5518 119.873 77.6462 119.795 77.7666C119.717 77.8838 119.657 78.0189 119.614 78.1719C119.575 78.3249 119.556 78.4876 119.556 78.6602ZM126.113 80.6475C126.113 80.514 126.081 80.3968 126.016 80.2959C125.951 80.195 125.843 80.0973 125.693 80.0029C125.547 79.9085 125.348 79.8076 125.098 79.7002C124.854 79.5993 124.634 79.5 124.438 79.4023C124.246 79.3014 124.084 79.1924 123.95 79.0752C123.817 78.958 123.714 78.8229 123.643 78.6699C123.574 78.5137 123.54 78.3298 123.54 78.1182C123.54 77.9066 123.579 77.7113 123.657 77.5322C123.739 77.3499 123.853 77.1904 123.999 77.0537C124.146 76.917 124.321 76.8112 124.526 76.7363C124.731 76.6582 124.961 76.6191 125.215 76.6191C125.576 76.6191 125.884 76.6891 126.138 76.8291C126.392 76.9691 126.585 77.1611 126.719 77.4053C126.855 77.6462 126.924 77.918 126.924 78.2207H126.064C126.064 78.0742 126.032 77.9359 125.967 77.8057C125.902 77.6755 125.806 77.5697 125.679 77.4883C125.552 77.4036 125.397 77.3613 125.215 77.3613C125.023 77.3613 124.867 77.3955 124.746 77.4639C124.626 77.5322 124.538 77.6217 124.482 77.7324C124.43 77.8398 124.404 77.9587 124.404 78.0889C124.404 78.1865 124.417 78.2712 124.443 78.3428C124.473 78.4111 124.521 78.4762 124.59 78.5381C124.658 78.5967 124.751 78.6585 124.868 78.7236C124.989 78.7855 125.142 78.8571 125.327 78.9385C125.685 79.0785 125.986 79.2201 126.23 79.3633C126.475 79.5065 126.66 79.6742 126.787 79.8662C126.914 80.0583 126.978 80.2959 126.978 80.5791C126.978 80.8102 126.935 81.0202 126.851 81.209C126.769 81.3945 126.652 81.554 126.499 81.6875C126.346 81.821 126.162 81.9235 125.947 81.9951C125.736 82.0635 125.498 82.0977 125.234 82.0977C124.837 82.0977 124.5 82.0195 124.224 81.8633C123.95 81.7038 123.742 81.4971 123.599 81.2432C123.459 80.986 123.389 80.7109 123.389 80.418H124.253C124.263 80.6654 124.318 80.8574 124.419 80.9941C124.523 81.1309 124.648 81.2253 124.795 81.2773C124.941 81.3294 125.088 81.3555 125.234 81.3555C125.426 81.3555 125.588 81.3278 125.718 81.2725C125.848 81.2139 125.946 81.1309 126.011 81.0234C126.079 80.916 126.113 80.7907 126.113 80.6475ZM132.993 81.0967V78.2305C132.993 78.0221 132.961 77.8545 132.896 77.7275C132.834 77.6006 132.739 77.5078 132.612 77.4492C132.489 77.3906 132.332 77.3613 132.144 77.3613C131.961 77.3613 131.803 77.3988 131.67 77.4736C131.54 77.5485 131.439 77.6478 131.367 77.7715C131.299 77.8952 131.265 78.0319 131.265 78.1816H130.4C130.4 77.9928 130.441 77.8057 130.522 77.6201C130.607 77.4346 130.728 77.2669 130.884 77.1172C131.04 76.9642 131.227 76.8438 131.445 76.7559C131.667 76.6647 131.914 76.6191 132.188 76.6191C132.513 76.6191 132.801 76.6729 133.052 76.7803C133.302 76.8844 133.499 77.0553 133.643 77.293C133.786 77.5306 133.857 77.8464 133.857 78.2402V80.8477C133.857 81.0234 133.87 81.2106 133.896 81.4092C133.926 81.6077 133.966 81.7786 134.019 81.9219V82H133.125C133.083 81.8958 133.05 81.7575 133.027 81.585C133.005 81.4092 132.993 81.2464 132.993 81.0967ZM133.13 78.7969L133.14 79.4316H132.539C132.334 79.4316 132.147 79.4544 131.978 79.5C131.812 79.5456 131.668 79.6123 131.548 79.7002C131.427 79.7848 131.335 79.8906 131.27 80.0176C131.208 80.1445 131.177 80.2894 131.177 80.4521C131.177 80.6637 131.206 80.833 131.265 80.96C131.323 81.0837 131.411 81.1732 131.528 81.2285C131.646 81.2839 131.794 81.3115 131.973 81.3115C132.191 81.3115 132.383 81.2611 132.549 81.1602C132.715 81.0592 132.843 80.9372 132.935 80.7939C133.029 80.6507 133.073 80.5173 133.066 80.3936L133.257 80.7988C133.244 80.9258 133.201 81.0641 133.13 81.2139C133.062 81.3604 132.965 81.502 132.842 81.6387C132.718 81.7721 132.572 81.8828 132.402 81.9707C132.236 82.0553 132.049 82.0977 131.841 82.0977C131.535 82.0977 131.266 82.0391 131.035 81.9219C130.807 81.8047 130.63 81.6322 130.503 81.4043C130.376 81.1764 130.312 80.8949 130.312 80.5596C130.312 80.3057 130.356 80.0713 130.444 79.8564C130.532 79.6416 130.662 79.4561 130.835 79.2998C131.007 79.1403 131.224 79.0166 131.484 78.9287C131.748 78.8408 132.052 78.7969 132.397 78.7969H133.13ZM136.064 77.8447V82H135.2V76.7168H136.016L136.064 77.8447ZM135.854 79.1582L135.503 79.1436C135.5 78.7822 135.54 78.4486 135.625 78.1426C135.713 77.8333 135.837 77.5648 135.996 77.3369C136.159 77.109 136.353 76.9333 136.577 76.8096C136.802 76.6826 137.051 76.6191 137.324 76.6191C137.539 76.6191 137.734 76.6549 137.91 76.7266C138.086 76.7949 138.236 76.9056 138.359 77.0586C138.483 77.2116 138.577 77.4102 138.643 77.6543C138.711 77.8952 138.745 78.1898 138.745 78.5381V82H137.881V78.5283C137.881 78.2516 137.85 78.0303 137.788 77.8643C137.729 77.695 137.638 77.5729 137.515 77.498C137.394 77.4199 137.241 77.3809 137.056 77.3809C136.886 77.3809 136.729 77.4281 136.582 77.5225C136.436 77.6169 136.307 77.7471 136.196 77.9131C136.089 78.0791 136.004 78.2695 135.942 78.4844C135.884 78.696 135.854 78.9206 135.854 79.1582ZM142.812 80.9746V74.5H143.672V82H142.886L142.812 80.9746ZM139.858 79.6123V79.1191C139.858 78.6829 139.901 78.3086 139.985 77.9961C140.07 77.6803 140.19 77.4215 140.347 77.2197C140.503 77.0146 140.69 76.8633 140.908 76.7656C141.126 76.668 141.367 76.6191 141.631 76.6191C141.904 76.6191 142.139 76.6745 142.334 76.7852C142.533 76.8958 142.699 77.057 142.832 77.2686C142.965 77.4769 143.07 77.7308 143.145 78.0303C143.223 78.3265 143.275 78.6618 143.301 79.0361V79.6953C143.271 80.0664 143.218 80.4001 143.14 80.6963C143.065 80.9925 142.961 81.2448 142.827 81.4531C142.694 81.6615 142.528 81.821 142.329 81.9316C142.131 82.0423 141.895 82.0977 141.621 82.0977C141.361 82.0977 141.123 82.0472 140.908 81.9463C140.693 81.8421 140.506 81.6875 140.347 81.4824C140.19 81.2741 140.07 81.0153 139.985 80.7061C139.901 80.3936 139.858 80.029 139.858 79.6123ZM140.723 79.1191V79.6123C140.723 79.9053 140.744 80.1608 140.786 80.3789C140.828 80.5938 140.895 80.7728 140.986 80.916C141.077 81.056 141.193 81.1602 141.333 81.2285C141.476 81.2969 141.647 81.3311 141.846 81.3311C142.087 81.3311 142.284 81.2725 142.437 81.1553C142.59 81.0381 142.712 80.8835 142.803 80.6914C142.897 80.4961 142.972 80.2861 143.027 80.0615V78.6748C142.995 78.5088 142.948 78.3493 142.886 78.1963C142.824 78.04 142.746 77.9017 142.651 77.7812C142.56 77.6576 142.448 77.5599 142.314 77.4883C142.184 77.4167 142.031 77.3809 141.855 77.3809C141.657 77.3809 141.484 77.4167 141.338 77.4883C141.195 77.5599 141.077 77.6673 140.986 77.8105C140.898 77.9538 140.832 78.1344 140.786 78.3525C140.744 78.5706 140.723 78.8262 140.723 79.1191ZM149.131 81.3604C149.303 81.3604 149.46 81.3262 149.6 81.2578C149.743 81.1862 149.86 81.0755 149.951 80.9258C150.042 80.7728 150.094 80.5742 150.107 80.3301H150.918C150.905 80.6816 150.815 80.9909 150.649 81.2578C150.487 81.5215 150.272 81.7282 150.005 81.8779C149.741 82.0244 149.45 82.0977 149.131 82.0977C148.789 82.0977 148.491 82.0423 148.237 81.9316C147.987 81.821 147.778 81.6615 147.612 81.4531C147.45 81.2415 147.327 80.986 147.246 80.6865C147.165 80.3838 147.124 80.0404 147.124 79.6562V79.0605C147.124 78.6764 147.165 78.3346 147.246 78.0352C147.327 77.7324 147.45 77.4769 147.612 77.2686C147.778 77.057 147.987 76.8958 148.237 76.7852C148.491 76.6745 148.789 76.6191 149.131 76.6191C149.489 76.6191 149.798 76.6956 150.059 76.8486C150.322 76.9984 150.527 77.2165 150.674 77.5029C150.824 77.7861 150.905 78.1296 150.918 78.5332H150.107C150.094 78.2728 150.047 78.0563 149.966 77.8838C149.884 77.708 149.774 77.5778 149.634 77.4932C149.494 77.4053 149.326 77.3613 149.131 77.3613C148.903 77.3613 148.714 77.402 148.564 77.4834C148.418 77.5615 148.302 77.6755 148.218 77.8252C148.133 77.9749 148.073 78.154 148.037 78.3623C148.005 78.5706 147.988 78.8034 147.988 79.0605V79.6562C147.988 79.9134 148.005 80.1478 148.037 80.3594C148.073 80.5677 148.132 80.7467 148.213 80.8965C148.298 81.0462 148.415 81.1618 148.564 81.2432C148.714 81.3213 148.903 81.3604 149.131 81.3604ZM151.738 79.6123V79.1094C151.738 78.6992 151.79 78.3395 151.895 78.0303C151.999 77.7178 152.144 77.4574 152.329 77.249C152.515 77.0407 152.731 76.8844 152.979 76.7803C153.226 76.6729 153.491 76.6191 153.774 76.6191C154.064 76.6191 154.333 76.6729 154.58 76.7803C154.827 76.8844 155.044 77.0407 155.229 77.249C155.418 77.4574 155.565 77.7178 155.669 78.0303C155.773 78.3395 155.825 78.6992 155.825 79.1094V79.6123C155.825 80.0225 155.773 80.3838 155.669 80.6963C155.565 81.0055 155.42 81.2643 155.234 81.4727C155.049 81.681 154.832 81.8372 154.585 81.9414C154.338 82.0456 154.071 82.0977 153.784 82.0977C153.498 82.0977 153.231 82.0456 152.983 81.9414C152.736 81.8372 152.518 81.681 152.329 81.4727C152.144 81.2643 151.999 81.0055 151.895 80.6963C151.79 80.3838 151.738 80.0225 151.738 79.6123ZM152.603 79.1094V79.6123C152.603 79.902 152.632 80.1559 152.69 80.374C152.749 80.5921 152.832 80.7744 152.939 80.9209C153.047 81.0674 153.172 81.1781 153.315 81.2529C153.459 81.3245 153.615 81.3604 153.784 81.3604C153.979 81.3604 154.15 81.3245 154.297 81.2529C154.447 81.1781 154.57 81.0674 154.668 80.9209C154.766 80.7744 154.839 80.5921 154.888 80.374C154.937 80.1559 154.961 79.902 154.961 79.6123V79.1094C154.961 78.8197 154.932 78.5674 154.873 78.3525C154.814 78.1344 154.731 77.9521 154.624 77.8057C154.517 77.6559 154.39 77.5452 154.243 77.4736C154.1 77.3988 153.944 77.3613 153.774 77.3613C153.608 77.3613 153.454 77.3988 153.311 77.4736C153.167 77.5452 153.042 77.6559 152.935 77.8057C152.83 77.9521 152.749 78.1344 152.69 78.3525C152.632 78.5674 152.603 78.8197 152.603 79.1094ZM157.803 77.8447V82H156.938V76.7168H157.754L157.803 77.8447ZM157.593 79.1582L157.241 79.1436C157.238 78.7822 157.279 78.4486 157.363 78.1426C157.451 77.8333 157.575 77.5648 157.734 77.3369C157.897 77.109 158.091 76.9333 158.315 76.8096C158.54 76.6826 158.789 76.6191 159.062 76.6191C159.277 76.6191 159.473 76.6549 159.648 76.7266C159.824 76.7949 159.974 76.9056 160.098 77.0586C160.221 77.2116 160.316 77.4102 160.381 77.6543C160.449 77.8952 160.483 78.1898 160.483 78.5381V82H159.619V78.5283C159.619 78.2516 159.588 78.0303 159.526 77.8643C159.468 77.695 159.377 77.5729 159.253 77.498C159.132 77.4199 158.979 77.3809 158.794 77.3809C158.625 77.3809 158.467 77.4281 158.32 77.5225C158.174 77.6169 158.045 77.7471 157.935 77.9131C157.827 78.0791 157.743 78.2695 157.681 78.4844C157.622 78.696 157.593 78.9206 157.593 79.1582ZM164.551 80.9746V74.5H165.41V82H164.624L164.551 80.9746ZM161.597 79.6123V79.1191C161.597 78.6829 161.639 78.3086 161.724 77.9961C161.808 77.6803 161.929 77.4215 162.085 77.2197C162.241 77.0146 162.428 76.8633 162.646 76.7656C162.865 76.668 163.105 76.6191 163.369 76.6191C163.643 76.6191 163.877 76.6745 164.072 76.7852C164.271 76.8958 164.437 77.057 164.57 77.2686C164.704 77.4769 164.808 77.7308 164.883 78.0303C164.961 78.3265 165.013 78.6618 165.039 79.0361V79.6953C165.01 80.0664 164.956 80.4001 164.878 80.6963C164.803 80.9925 164.699 81.2448 164.565 81.4531C164.432 81.6615 164.266 81.821 164.067 81.9316C163.869 82.0423 163.633 82.0977 163.359 82.0977C163.099 82.0977 162.861 82.0472 162.646 81.9463C162.432 81.8421 162.244 81.6875 162.085 81.4824C161.929 81.2741 161.808 81.0153 161.724 80.7061C161.639 80.3936 161.597 80.029 161.597 79.6123ZM162.461 79.1191V79.6123C162.461 79.9053 162.482 80.1608 162.524 80.3789C162.567 80.5938 162.633 80.7728 162.725 80.916C162.816 81.056 162.931 81.1602 163.071 81.2285C163.215 81.2969 163.385 81.3311 163.584 81.3311C163.825 81.3311 164.022 81.2725 164.175 81.1553C164.328 81.0381 164.45 80.8835 164.541 80.6914C164.635 80.4961 164.71 80.2861 164.766 80.0615V78.6748C164.733 78.5088 164.686 78.3493 164.624 78.1963C164.562 78.04 164.484 77.9017 164.39 77.7812C164.299 77.6576 164.186 77.5599 164.053 77.4883C163.923 77.4167 163.77 77.3809 163.594 77.3809C163.395 77.3809 163.223 77.4167 163.076 77.4883C162.933 77.5599 162.816 77.6673 162.725 77.8105C162.637 77.9538 162.57 78.1344 162.524 78.3525C162.482 78.5706 162.461 78.8262 162.461 79.1191ZM167.671 76.7168V82H166.812V76.7168H167.671ZM166.763 75.3154C166.763 75.1689 166.803 75.0452 166.885 74.9443C166.966 74.8434 167.088 74.793 167.251 74.793C167.414 74.793 167.536 74.8434 167.617 74.9443C167.702 75.0452 167.744 75.1689 167.744 75.3154C167.744 75.4554 167.702 75.5758 167.617 75.6768C167.536 75.7744 167.414 75.8232 167.251 75.8232C167.088 75.8232 166.966 75.7744 166.885 75.6768C166.803 75.5758 166.763 75.4554 166.763 75.3154ZM170.967 76.7168V77.4102H168.501V76.7168H170.967ZM169.307 75.4326H170.171V80.6914C170.171 80.8704 170.192 81.0055 170.234 81.0967C170.28 81.1878 170.337 81.248 170.405 81.2773C170.474 81.3066 170.547 81.3213 170.625 81.3213C170.684 81.3213 170.749 81.3148 170.82 81.3018C170.892 81.2855 170.941 81.2725 170.967 81.2627L170.962 82C170.903 82.0228 170.825 82.0439 170.728 82.0635C170.63 82.0863 170.506 82.0977 170.356 82.0977C170.171 82.0977 169.998 82.0537 169.839 81.9658C169.679 81.8779 169.551 81.7314 169.453 81.5264C169.355 81.318 169.307 81.0381 169.307 80.6865V75.4326ZM172.925 76.7168V82H172.065V76.7168H172.925ZM172.017 75.3154C172.017 75.1689 172.057 75.0452 172.139 74.9443C172.22 74.8434 172.342 74.793 172.505 74.793C172.668 74.793 172.79 74.8434 172.871 74.9443C172.956 75.0452 172.998 75.1689 172.998 75.3154C172.998 75.4554 172.956 75.5758 172.871 75.6768C172.79 75.7744 172.668 75.8232 172.505 75.8232C172.342 75.8232 172.22 75.7744 172.139 75.6768C172.057 75.5758 172.017 75.4554 172.017 75.3154ZM174.111 79.6123V79.1094C174.111 78.6992 174.163 78.3395 174.268 78.0303C174.372 77.7178 174.517 77.4574 174.702 77.249C174.888 77.0407 175.104 76.8844 175.352 76.7803C175.599 76.6729 175.864 76.6191 176.147 76.6191C176.437 76.6191 176.706 76.6729 176.953 76.7803C177.201 76.8844 177.417 77.0407 177.603 77.249C177.791 77.4574 177.938 77.7178 178.042 78.0303C178.146 78.3395 178.198 78.6992 178.198 79.1094V79.6123C178.198 80.0225 178.146 80.3838 178.042 80.6963C177.938 81.0055 177.793 81.2643 177.607 81.4727C177.422 81.681 177.205 81.8372 176.958 81.9414C176.711 82.0456 176.444 82.0977 176.157 82.0977C175.871 82.0977 175.604 82.0456 175.356 81.9414C175.109 81.8372 174.891 81.681 174.702 81.4727C174.517 81.2643 174.372 81.0055 174.268 80.6963C174.163 80.3838 174.111 80.0225 174.111 79.6123ZM174.976 79.1094V79.6123C174.976 79.902 175.005 80.1559 175.063 80.374C175.122 80.5921 175.205 80.7744 175.312 80.9209C175.42 81.0674 175.545 81.1781 175.688 81.2529C175.832 81.3245 175.988 81.3604 176.157 81.3604C176.353 81.3604 176.523 81.3245 176.67 81.2529C176.82 81.1781 176.943 81.0674 177.041 80.9209C177.139 80.7744 177.212 80.5921 177.261 80.374C177.31 80.1559 177.334 79.902 177.334 79.6123V79.1094C177.334 78.8197 177.305 78.5674 177.246 78.3525C177.188 78.1344 177.104 77.9521 176.997 77.8057C176.89 77.6559 176.763 77.5452 176.616 77.4736C176.473 77.3988 176.317 77.3613 176.147 77.3613C175.981 77.3613 175.827 77.3988 175.684 77.4736C175.54 77.5452 175.415 77.6559 175.308 77.8057C175.203 77.9521 175.122 78.1344 175.063 78.3525C175.005 78.5674 174.976 78.8197 174.976 79.1094ZM180.176 77.8447V82H179.312V76.7168H180.127L180.176 77.8447ZM179.966 79.1582L179.614 79.1436C179.611 78.7822 179.652 78.4486 179.736 78.1426C179.824 77.8333 179.948 77.5648 180.107 77.3369C180.27 77.109 180.464 76.9333 180.688 76.8096C180.913 76.6826 181.162 76.6191 181.436 76.6191C181.65 76.6191 181.846 76.6549 182.021 76.7266C182.197 76.7949 182.347 76.9056 182.471 77.0586C182.594 77.2116 182.689 77.4102 182.754 77.6543C182.822 77.8952 182.856 78.1898 182.856 78.5381V82H181.992V78.5283C181.992 78.2516 181.961 78.0303 181.899 77.8643C181.841 77.695 181.75 77.5729 181.626 77.498C181.506 77.4199 181.353 77.3809 181.167 77.3809C180.998 77.3809 180.84 77.4281 180.693 77.5225C180.547 77.6169 180.418 77.7471 180.308 77.9131C180.2 78.0791 180.116 78.2695 180.054 78.4844C179.995 78.696 179.966 78.9206 179.966 79.1582ZM186.719 80.6475C186.719 80.514 186.686 80.3968 186.621 80.2959C186.556 80.195 186.449 80.0973 186.299 80.0029C186.152 79.9085 185.954 79.8076 185.703 79.7002C185.459 79.5993 185.239 79.5 185.044 79.4023C184.852 79.3014 184.689 79.1924 184.556 79.0752C184.422 78.958 184.32 78.8229 184.248 78.6699C184.18 78.5137 184.146 78.3298 184.146 78.1182C184.146 77.9066 184.185 77.7113 184.263 77.5322C184.344 77.3499 184.458 77.1904 184.604 77.0537C184.751 76.917 184.927 76.8112 185.132 76.7363C185.337 76.6582 185.566 76.6191 185.82 76.6191C186.182 76.6191 186.489 76.6891 186.743 76.8291C186.997 76.9691 187.191 77.1611 187.324 77.4053C187.461 77.6462 187.529 77.918 187.529 78.2207H186.67C186.67 78.0742 186.637 77.9359 186.572 77.8057C186.507 77.6755 186.411 77.5697 186.284 77.4883C186.157 77.4036 186.003 77.3613 185.82 77.3613C185.628 77.3613 185.472 77.3955 185.352 77.4639C185.231 77.5322 185.143 77.6217 185.088 77.7324C185.036 77.8398 185.01 77.9587 185.01 78.0889C185.01 78.1865 185.023 78.2712 185.049 78.3428C185.078 78.4111 185.127 78.4762 185.195 78.5381C185.264 78.5967 185.356 78.6585 185.474 78.7236C185.594 78.7855 185.747 78.8571 185.933 78.9385C186.291 79.0785 186.592 79.2201 186.836 79.3633C187.08 79.5065 187.266 79.6742 187.393 79.8662C187.52 80.0583 187.583 80.2959 187.583 80.5791C187.583 80.8102 187.541 81.0202 187.456 81.209C187.375 81.3945 187.257 81.554 187.104 81.6875C186.951 81.821 186.768 81.9235 186.553 81.9951C186.341 82.0635 186.104 82.0977 185.84 82.0977C185.443 82.0977 185.106 82.0195 184.829 81.8633C184.556 81.7038 184.347 81.4971 184.204 81.2432C184.064 80.986 183.994 80.7109 183.994 80.418H184.858C184.868 80.6654 184.924 80.8574 185.024 80.9941C185.129 81.1309 185.254 81.2253 185.4 81.2773C185.547 81.3294 185.693 81.3555 185.84 81.3555C186.032 81.3555 186.193 81.3278 186.323 81.2725C186.453 81.2139 186.551 81.1309 186.616 81.0234C186.685 80.916 186.719 80.7907 186.719 80.6475ZM193.599 81.0967V78.2305C193.599 78.0221 193.566 77.8545 193.501 77.7275C193.439 77.6006 193.345 77.5078 193.218 77.4492C193.094 77.3906 192.938 77.3613 192.749 77.3613C192.567 77.3613 192.409 77.3988 192.275 77.4736C192.145 77.5485 192.044 77.6478 191.973 77.7715C191.904 77.8952 191.87 78.0319 191.87 78.1816H191.006C191.006 77.9928 191.047 77.8057 191.128 77.6201C191.213 77.4346 191.333 77.2669 191.489 77.1172C191.646 76.9642 191.833 76.8438 192.051 76.7559C192.272 76.6647 192.52 76.6191 192.793 76.6191C193.118 76.6191 193.407 76.6729 193.657 76.7803C193.908 76.8844 194.105 77.0553 194.248 77.293C194.391 77.5306 194.463 77.8464 194.463 78.2402V80.8477C194.463 81.0234 194.476 81.2106 194.502 81.4092C194.531 81.6077 194.572 81.7786 194.624 81.9219V82H193.73C193.688 81.8958 193.656 81.7575 193.633 81.585C193.61 81.4092 193.599 81.2464 193.599 81.0967ZM193.735 78.7969L193.745 79.4316H193.145C192.939 79.4316 192.752 79.4544 192.583 79.5C192.417 79.5456 192.274 79.6123 192.153 79.7002C192.033 79.7848 191.94 79.8906 191.875 80.0176C191.813 80.1445 191.782 80.2894 191.782 80.4521C191.782 80.6637 191.812 80.833 191.87 80.96C191.929 81.0837 192.017 81.1732 192.134 81.2285C192.251 81.2839 192.399 81.3115 192.578 81.3115C192.796 81.3115 192.988 81.2611 193.154 81.1602C193.32 81.0592 193.449 80.9372 193.54 80.7939C193.634 80.6507 193.678 80.5173 193.672 80.3936L193.862 80.7988C193.849 80.9258 193.807 81.0641 193.735 81.2139C193.667 81.3604 193.571 81.502 193.447 81.6387C193.324 81.7721 193.177 81.8828 193.008 81.9707C192.842 82.0553 192.655 82.0977 192.446 82.0977C192.14 82.0977 191.872 82.0391 191.641 81.9219C191.413 81.8047 191.235 81.6322 191.108 81.4043C190.981 81.1764 190.918 80.8949 190.918 80.5596C190.918 80.3057 190.962 80.0713 191.05 79.8564C191.138 79.6416 191.268 79.4561 191.44 79.2998C191.613 79.1403 191.829 79.0166 192.09 78.9287C192.354 78.8408 192.658 78.7969 193.003 78.7969H193.735ZM196.67 77.7324V84.0312H195.806V76.7168H196.592L196.67 77.7324ZM199.624 79.1191V79.6123C199.624 80.029 199.585 80.3936 199.507 80.7061C199.432 81.0153 199.32 81.2741 199.17 81.4824C199.023 81.6875 198.843 81.8421 198.628 81.9463C198.413 82.0472 198.167 82.0977 197.891 82.0977C197.614 82.0977 197.373 82.0456 197.168 81.9414C196.966 81.834 196.795 81.6794 196.655 81.4775C196.519 81.2757 196.41 81.0332 196.328 80.75C196.25 80.4635 196.196 80.1429 196.167 79.7881V79.0361C196.196 78.6618 196.25 78.3265 196.328 78.0303C196.406 77.7308 196.514 77.4769 196.65 77.2686C196.79 77.057 196.961 76.8958 197.163 76.7852C197.368 76.6745 197.607 76.6191 197.881 76.6191C198.164 76.6191 198.413 76.668 198.628 76.7656C198.846 76.8633 199.028 77.0146 199.175 77.2197C199.325 77.4215 199.437 77.6803 199.512 77.9961C199.587 78.3086 199.624 78.6829 199.624 79.1191ZM198.76 79.6123V79.1191C198.76 78.8262 198.737 78.5706 198.691 78.3525C198.649 78.1344 198.581 77.9538 198.486 77.8105C198.392 77.6673 198.273 77.5599 198.13 77.4883C197.987 77.4167 197.814 77.3809 197.612 77.3809C197.44 77.3809 197.287 77.4167 197.153 77.4883C197.023 77.5599 196.911 77.6576 196.816 77.7812C196.722 77.9017 196.644 78.04 196.582 78.1963C196.52 78.3493 196.475 78.5088 196.445 78.6748V80.1543C196.501 80.3626 196.574 80.5596 196.665 80.7451C196.756 80.9274 196.878 81.0755 197.031 81.1895C197.188 81.3034 197.384 81.3604 197.622 81.3604C197.821 81.3604 197.992 81.3245 198.135 81.2529C198.278 81.1813 198.395 81.0739 198.486 80.9307C198.581 80.7842 198.649 80.6019 198.691 80.3838C198.737 80.1624 198.76 79.9053 198.76 79.6123ZM201.602 77.7324V84.0312H200.737V76.7168H201.523L201.602 77.7324ZM204.556 79.1191V79.6123C204.556 80.029 204.517 80.3936 204.438 80.7061C204.364 81.0153 204.251 81.2741 204.102 81.4824C203.955 81.6875 203.774 81.8421 203.56 81.9463C203.345 82.0472 203.099 82.0977 202.822 82.0977C202.546 82.0977 202.305 82.0456 202.1 81.9414C201.898 81.834 201.727 81.6794 201.587 81.4775C201.45 81.2757 201.341 81.0332 201.26 80.75C201.182 80.4635 201.128 80.1429 201.099 79.7881V79.0361C201.128 78.6618 201.182 78.3265 201.26 78.0303C201.338 77.7308 201.445 77.4769 201.582 77.2686C201.722 77.057 201.893 76.8958 202.095 76.7852C202.3 76.6745 202.539 76.6191 202.812 76.6191C203.096 76.6191 203.345 76.668 203.56 76.7656C203.778 76.8633 203.96 77.0146 204.106 77.2197C204.256 77.4215 204.368 77.6803 204.443 77.9961C204.518 78.3086 204.556 78.6829 204.556 79.1191ZM203.691 79.6123V79.1191C203.691 78.8262 203.669 78.5706 203.623 78.3525C203.581 78.1344 203.512 77.9538 203.418 77.8105C203.324 77.6673 203.205 77.5599 203.062 77.4883C202.918 77.4167 202.746 77.3809 202.544 77.3809C202.371 77.3809 202.218 77.4167 202.085 77.4883C201.955 77.5599 201.842 77.6576 201.748 77.7812C201.654 77.9017 201.576 78.04 201.514 78.1963C201.452 78.3493 201.406 78.5088 201.377 78.6748V80.1543C201.432 80.3626 201.506 80.5596 201.597 80.7451C201.688 80.9274 201.81 81.0755 201.963 81.1895C202.119 81.3034 202.316 81.3604 202.554 81.3604C202.752 81.3604 202.923 81.3245 203.066 81.2529C203.21 81.1813 203.327 81.0739 203.418 80.9307C203.512 80.7842 203.581 80.6019 203.623 80.3838C203.669 80.1624 203.691 79.9053 203.691 79.6123ZM206.597 74.5V82H205.737V74.5H206.597ZM209.189 81.4531L210.366 76.7168H211.284L209.541 82.8154C209.499 82.9456 209.442 83.0856 209.37 83.2354C209.302 83.3883 209.214 83.5332 209.106 83.6699C208.999 83.8066 208.87 83.9173 208.721 84.002C208.571 84.0898 208.395 84.1338 208.193 84.1338C208.132 84.1338 208.052 84.124 207.954 84.1045C207.86 84.085 207.791 84.0687 207.749 84.0557V83.3232C207.769 83.3265 207.799 83.3298 207.842 83.333C207.884 83.3395 207.915 83.3428 207.935 83.3428C208.104 83.3428 208.247 83.3151 208.364 83.2598C208.485 83.2077 208.587 83.1182 208.672 82.9912C208.757 82.8675 208.828 82.6966 208.887 82.4785L209.189 81.4531ZM208.428 76.7168L209.478 80.8184L209.702 81.7705L209.087 82.1025L207.485 76.7168H208.428ZM212.114 78.543L213.096 77.1953L211.621 76.7559L211.851 76.0234L213.325 76.5654L213.281 74.8857H214.023L213.975 76.5947L215.43 76.0527L215.654 76.7998L214.155 77.2441L215.117 78.5674L214.512 79.0215L213.608 77.6152L212.725 78.9873L212.114 78.543ZM216.421 78.543L217.402 77.1953L215.928 76.7559L216.157 76.0234L217.632 76.5654L217.588 74.8857H218.33L218.281 76.5947L219.736 76.0527L219.961 76.7998L218.462 77.2441L219.424 78.5674L218.818 79.0215L217.915 77.6152L217.031 78.9873L216.421 78.543ZM220.728 78.543L221.709 77.1953L220.234 76.7559L220.464 76.0234L221.938 76.5654L221.895 74.8857H222.637L222.588 76.5947L224.043 76.0527L224.268 76.7998L222.769 77.2441L223.73 78.5674L223.125 79.0215L222.222 77.6152L221.338 78.9873L220.728 78.543Z" fill="white" fill-opacity="0.4"/>
</svg>
