<svg width="66" height="66" viewBox="0 0 66 66" fill="none" xmlns="http://www.w3.org/2000/svg">
<circle cx="33" cy="33" r="33" fill="#025492" fill-opacity="0.1"/>
<path d="M32.9997 39.6654C32.2924 39.6654 31.6142 39.3844 31.1141 38.8843C30.614 38.3842 30.333 37.7059 30.333 36.9987C30.333 35.5187 31.5197 34.332 32.9997 34.332C33.7069 34.332 34.3852 34.613 34.8853 35.1131C35.3854 35.6132 35.6663 36.2915 35.6663 36.9987C35.6663 37.7059 35.3854 38.3842 34.8853 38.8843C34.3852 39.3844 33.7069 39.6654 32.9997 39.6654ZM40.9997 43.6654V30.332H24.9997V43.6654H40.9997ZM40.9997 27.6654C41.7069 27.6654 42.3852 27.9463 42.8853 28.4464C43.3854 28.9465 43.6663 29.6248 43.6663 30.332V43.6654C43.6663 44.3726 43.3854 45.0509 42.8853 45.551C42.3852 46.0511 41.7069 46.332 40.9997 46.332H24.9997C24.2924 46.332 23.6142 46.0511 23.1141 45.551C22.614 45.0509 22.333 44.3726 22.333 43.6654V30.332C22.333 28.852 23.5197 27.6654 24.9997 27.6654H26.333V24.9987C26.333 23.2306 27.0354 21.5349 28.2856 20.2847C29.5359 19.0344 31.2316 18.332 32.9997 18.332C33.8752 18.332 34.7421 18.5045 35.5509 18.8395C36.3597 19.1745 37.0947 19.6656 37.7137 20.2847C38.3328 20.9037 38.8238 21.6386 39.1589 22.4475C39.4939 23.2563 39.6663 24.1232 39.6663 24.9987V27.6654H40.9997ZM32.9997 20.9987C31.9388 20.9987 30.9214 21.4201 30.1712 22.1703C29.4211 22.9204 28.9997 23.9378 28.9997 24.9987V27.6654H36.9997V24.9987C36.9997 23.9378 36.5782 22.9204 35.8281 22.1703C35.078 21.4201 34.0605 20.9987 32.9997 20.9987Z" fill="#025492"/>
</svg>
